# xmcd
#
# Track frame offsets:
#	150
#	7835
#	20034
#	34600
#	55983
#	72822
#	91115
#	111660
#	126174
#	154947
#
# Disc length: 3440 seconds
#
# Revision: 26
# Processed by: cddbd v1.5.2PL0 Copyright (c) Steve Scherf et al.
# Submitted via: EasyCDDAExtractor 15.3.0.1
#
DISCID=7d0d6e0a
DTITLE=Christina Aguilera - Back To Basics - CD 2
DYEAR=2006
DGENRE=Pop
TTITLE0=Enter The Circus
TTITLE1=Welcome
TTITLE2=Candyman
TTITLE3=Nasty Naughty Boy
TTITLE4=I Got Trouble
TTITLE5=Hurt
TTITLE6=Mercy On Me
TTITLE7=Save Me From Myself
TTITLE8=The Right Man
TTITLE9=Data
EXTD=YEAR: 2006
EXTT0=
EXTT1=
EXTT2=
EXTT3=
EXTT4=
EXTT5=
EXTT6=
EXTT7=
EXTT8=
EXTT9=
PLAYORDER=
